# xmcd
#
# Track frame offsets: 
#        150
#        9938
#        23742
#        35784
#        48294
#        59170
#        75853
#        89500
#        98651
#        110021
#        123035
#        136720
#        149527
#        162217
#        176740
#        191506
#        202718
#        210933
#        225336
#        239681
#        252178
#
# Disc length: 3532 seconds
#
# Revision: 0
# Processed by: cddbd v1.5.2PL0 Copyright (c) Steve Scherf et al.
# Submitted via: ExactAudioCopy v1.1
#
DISCID=0c0dca15
DTITLE=Red Foley - The Complete US Country Hits 1944-59_CD2
DYEAR=2014
DGENRE=Country
TTITLE0=Ernest Tubb and Red Foley - Don't Be Ashamed of Your Age
TTITLE1=I Gotta Have My Baby Back
TTITLE2=Careless Kisses
TTITLE3=Chattanoogie Shoe Shine Boy
TTITLE4=Sugarfoot Rag
TTITLE5=Steal Away
TTITLE6=Birmingham Bounce
TTITLE7=Red Foley and The Dixie Dons - Choc'late Ice Cream Cone
TTITLE8=Red Foley and The Dixie Dons - Mississippi
TTITLE9=Red Foley withThe Jordanaires - Just a Closer Walk with Thee
TTITLE10=Red Foley and Ernest Tubb With The Sunshine Trio - Goodnight 
TTITLE10=Irene
TTITLE11=Red Foley and Ernest Tubb - Hillbilly Fever No.2
TTITLE12=Cincinnati Dancing Pig
TTITLE13=Red Foley and Anita Kerr Singers - Our Lady of Fatima
TTITLE14=Evelyn Knight and Red Foley - My Heart Cries for You
TTITLE15=Hot Rod Race
TTITLE16=Hobo Boogie
TTITLE17=Red Foley and Ernest Tubb with Anita Kerr Singers - The Stran
TTITLE17=ge Little Girl
TTITLE18=Red Foley with the Sunshine Boys Quartet - (There'll Be) Peac
TTITLE18=e in the Valley (For Me)
TTITLE19=Red Foley with The Nashville Dixielanders  - Alabama Jubilee
TTITLE19=
TTITLE20=Red Foley and Ernest Tubb - Too Old to Cut the Mustard
EXTD=
EXTT0=
EXTT1=
EXTT2=
EXTT3=
EXTT4=
EXTT5=
EXTT6=
EXTT7=
EXTT8=
EXTT9=
EXTT10=
EXTT11=
EXTT12=
EXTT13=
EXTT14=
EXTT15=
EXTT16=
EXTT17=
EXTT18=
EXTT19=
EXTT20=
PLAYORDER=
